<!DOCTYPE svg PUBLIC "-//W3C//DTD SVG 1.1//EN" "http://www.w3.org/Graphics/SVG/1.1/DTD/svg11.dtd">
<!-- Uploaded to: SVG Repo, www.svgrepo.com, Transformed by: SVG Repo Mixer Tools -->
<svg fill="#000000" width="800px" height="800px" viewBox="0 0 24 24" id="fast-forward-circle" data-name="Flat Color" xmlns="http://www.w3.org/2000/svg" class="icon flat-color">
<g id="SVGRepo_bgCarrier" stroke-width="0"/>
<g id="SVGRepo_tracerCarrier" stroke-linecap="round" stroke-linejoin="round"/>
<g id="SVGRepo_iconCarrier">
<circle id="primary" cx="12" cy="12" r="10" style="fill: #001580;"/>
<path id="secondary" d="M17.6,11.2l-4-3A1,1,0,0,0,12,9v1L9.6,8.2A1,1,0,0,0,8,9v6a1,1,0,0,0,1.6.8L12,14v1a1,1,0,0,0,.55.89,1,1,0,0,0,1-.09l4-3a1,1,0,0,0,0-1.6Z" style="fill: #ffffff;"/>
</g>
</svg>